<?xml version="1.0" standalone="no"?>
<!DOCTYPE svg PUBLIC "-//W3C//DTD SVG 20010904//EN"
 "http://www.w3.org/TR/2001/REC-SVG-20010904/DTD/svg10.dtd">
<svg version="1.0" xmlns="http://www.w3.org/2000/svg"
 width="300.000000pt" height="287.000000pt" viewBox="0 0 300.000000 287.000000"
 preserveAspectRatio="xMidYMid meet">
<metadata>
Created by potrace 1.10, written by Peter Selinger 2001-2011
</metadata>
<g transform="translate(0.000000,287.000000) scale(0.050000,-0.050000)"
fill="#ffffff" stroke="none">
<path d="M4304 5449 c-8 -14 -36 -29 -64 -34 -43 -7 -45 -10 -15 -24 49 -22
140 4 122 35 -11 18 -6 17 17 -1 17 -14 46 -20 64 -13 31 12 31 15 -2 38 -46
31 -104 30 -122 -1z"/>
<path d="M5520 4719 c-38 -9 -191 -17 -340 -17 -148 0 -286 0 -305 -1 -21 -1
-35 -17 -35 -41 0 -22 -9 -40 -20 -40 -11 0 -20 -13 -20 -30 0 -31 -87 -265
-130 -350 -14 -27 -32 -79 -39 -115 -8 -36 -21 -65 -30 -65 -9 0 -23 -32 -30
-71 -7 -39 -34 -111 -61 -160 -26 -49 -53 -118 -61 -154 -8 -36 -31 -96 -52
-135 -20 -38 -37 -84 -37 -102 0 -42 -45 -80 -73 -62 -12 8 -28 77 -36 154 -7
77 -19 167 -24 200 -22 125 -72 504 -79 600 -15 183 -39 348 -53 362 -11 11
-293 16 -520 9 -20 -1 -35 -16 -35 -37 0 -20 -13 -54 -29 -75 -17 -22 -30 -51
-30 -65 -1 -14 -18 -64 -39 -110 -20 -46 -44 -113 -51 -149 -8 -36 -22 -65
-33 -65 -10 0 -18 -14 -18 -31 0 -17 -18 -73 -41 -125 -64 -145 -73 -169 -99
-244 -26 -75 -35 -99 -99 -244 -23 -52 -41 -101 -41 -110 0 -9 -12 -39 -27
-68 -15 -28 -34 -85 -41 -125 -8 -40 -21 -73 -30 -73 -10 0 -23 -28 -29 -62
-7 -33 -26 -90 -41 -125 -88 -193 -114 -259 -125 -314 -22 -110 -75 -66 -91
75 -13 116 -76 246 -120 246 -38 0 -14 95 29 114 67 31 235 185 235 216 0 14
14 31 30 37 17 7 30 21 30 32 0 11 26 63 59 116 202 329 299 882 171 977 -17
12 -30 31 -30 41 0 69 -228 167 -388 167 -89 0 -375 1 -636 2 -494 2 -516 -1
-516 -62 0 -21 -9 -43 -20 -50 -12 -7 -16 -21 -10 -31 6 -9 2 -33 -9 -53 -35
-63 -98 -216 -112 -272 -7 -30 -21 -59 -31 -65 -10 -6 -18 -27 -19 -45 0 -19
-18 -70 -39 -114 -21 -44 -39 -91 -39 -103 -1 -13 -14 -49 -31 -80 -53 -102
-110 -244 -110 -276 0 -17 -10 -31 -21 -31 -12 0 -20 -16 -17 -35 2 -19 -6
-60 -19 -91 -13 -31 -23 -65 -23 -75 0 -11 -8 -19 -18 -19 -10 0 -24 -34 -32
-75 -7 -41 -21 -84 -30 -95 -9 -11 -18 -27 -19 -35 -1 -8 -20 -56 -42 -106
-21 -51 -39 -98 -39 -106 0 -7 -13 -37 -28 -67 -16 -29 -34 -81 -42 -115 -7
-33 -20 -61 -29 -61 -9 0 -21 -27 -28 -60 -7 -33 -30 -100 -52 -149 -23 -49
-41 -101 -41 -116 0 -15 -8 -36 -18 -46 -9 -10 -28 -55 -41 -99 -24 -78 -59
-165 -112 -275 -14 -30 -32 -82 -39 -115 -7 -33 -20 -60 -29 -60 -9 0 -23 -34
-31 -75 -7 -41 -21 -84 -29 -95 -9 -11 -22 -47 -30 -80 -8 -33 -22 -65 -32
-71 -10 -6 -24 -39 -31 -73 l-12 -62 647 5 c644 5 845 22 970 81 35 17 72 30
82 30 11 0 61 32 111 70 50 39 101 70 113 70 11 0 21 8 21 18 0 24 139 162
164 162 24 0 3 -102 -36 -176 -15 -30 -28 -65 -28 -78 0 -14 -18 -56 -39 -95
-22 -38 -32 -74 -22 -80 37 -23 781 -8 781 16 0 13 13 47 28 76 15 29 39 86
52 127 13 41 37 98 52 127 15 29 28 68 28 87 0 18 8 39 18 45 10 6 24 35 31
65 8 30 32 95 54 145 62 143 71 166 97 241 13 39 37 97 52 130 15 33 40 94 57
135 30 78 43 86 89 57 18 -12 23 -35 14 -70 -7 -29 -4 -52 6 -52 10 0 24 -88
31 -195 8 -107 23 -215 35 -239 12 -24 16 -71 9 -104 -6 -33 -4 -65 5 -71 9
-5 18 -69 20 -141 2 -72 11 -151 20 -176 9 -24 12 -55 7 -69 -4 -14 4 -52 18
-85 l27 -60 242 0 242 0 26 55 c31 64 26 49 61 170 15 52 34 95 42 95 7 0 20
29 28 65 7 36 25 92 40 125 14 33 45 102 68 154 22 52 41 106 41 121 0 15 8
36 18 46 10 10 28 51 39 89 29 99 70 205 93 240 22 35 83 197 113 305 12 41
30 75 39 75 10 0 18 19 18 42 0 23 13 66 29 95 15 29 53 121 84 203 31 83 63
155 72 162 10 6 15 20 13 30 -3 10 6 43 19 74 13 31 23 70 23 85 0 16 9 29 19
29 11 0 25 32 32 70 8 39 21 70 30 70 9 0 22 29 30 65 7 36 31 103 51 149 21
46 38 96 39 110 0 14 13 43 30 65 16 21 29 58 29 82 0 24 13 55 28 67 15 13
34 48 41 78 12 52 46 133 104 247 15 29 27 72 27 95 0 23 8 42 18 42 9 0 22
18 28 40 6 22 4 39 -3 38 -7 -1 -44 -10 -83 -19z m-3000 -129 c104 -7 202 -23
216 -35 20 -17 31 -16 43 3 18 30 154 -31 202 -90 25 -31 25 -33 1 -19 -22 14
-21 7 3 -28 18 -25 27 -58 21 -73 -5 -16 0 -28 12 -28 30 0 28 -74 -3 -88 -18
-9 -19 -15 -2 -23 24 -12 19 -234 -7 -275 -8 -13 -17 -37 -19 -52 -2 -15 -12
-33 -22 -40 -28 -19 -46 -82 -24 -82 12 0 -2 -25 -30 -55 -28 -30 -51 -66 -51
-79 0 -49 -47 -126 -84 -137 -22 -7 -34 -24 -29 -39 12 -31 -79 -139 -132
-157 -19 -6 -35 -24 -35 -40 0 -16 -19 -33 -42 -39 -23 -6 -36 -21 -29 -33 8
-12 0 -27 -18 -33 -17 -7 -26 -20 -20 -30 6 -10 3 -18 -6 -18 -10 0 -12 -34
-4 -75 18 -104 41 -165 61 -165 9 0 11 -15 4 -33 -7 -19 -5 -28 6 -22 10 6 19
-8 21 -32 6 -92 57 -182 91 -160 9 5 16 3 14 -7 -8 -44 8 -56 72 -58 46 0 70
8 70 26 0 15 14 32 30 39 17 6 30 28 30 49 0 21 9 38 20 38 11 0 20 14 20 30
0 17 9 30 20 30 11 0 18 7 16 15 -3 8 6 34 19 57 13 24 18 48 11 55 -7 7 -2
13 10 13 13 0 18 13 11 30 -6 16 1 34 16 40 15 6 28 38 29 71 1 33 17 76 35
96 18 20 33 55 33 78 0 24 9 48 20 55 11 7 20 34 20 61 0 27 8 49 17 49 10 0
29 41 43 90 14 50 34 90 44 90 10 0 13 8 8 18 -6 9 3 46 20 80 18 35 34 75 36
88 2 13 14 43 27 66 13 24 18 48 11 55 -7 7 -3 13 9 13 12 0 28 29 36 65 8 36
26 83 42 104 15 22 27 65 27 97 0 31 8 52 17 46 9 -6 18 17 19 52 1 34 10 67
21 74 41 26 83 161 46 150 -18 -5 -13 1 12 14 25 13 45 41 45 63 0 32 9 36 61
25 33 -8 72 -5 85 6 31 24 154 27 154 3 0 -11 14 -19 30 -19 45 0 75 -92 80
-245 3 -74 14 -146 26 -160 12 -15 22 -58 22 -96 0 -145 9 -259 21 -259 7 0
12 -55 12 -123 -1 -82 8 -126 24 -132 16 -5 20 -27 12 -60 -9 -35 -6 -47 10
-37 14 9 18 3 11 -17 -7 -17 -2 -31 10 -31 12 0 22 -19 22 -41 0 -23 8 -36 19
-30 10 6 32 -8 49 -32 34 -48 132 -27 132 28 0 14 18 42 40 60 22 19 40 53 40
75 0 22 9 40 20 40 11 0 20 22 20 49 0 26 13 61 28 76 16 16 33 57 38 91 6 35
28 88 49 118 22 31 44 96 51 144 6 48 20 93 30 100 25 16 88 165 74 178 -5 6
0 22 11 35 12 14 25 50 31 79 5 30 23 68 39 84 28 28 31 35 37 91 1 14 16 25
32 25 17 0 37 9 47 20 10 13 20 11 26 -5 13 -33 107 -33 109 0 1 20 3 20 11 0
6 -14 22 -25 37 -25 15 0 30 11 35 25 7 19 16 19 43 -3 25 -21 39 -23 57 -5
47 47 118 -55 74 -108 -12 -15 -17 -36 -11 -46 6 -10 -2 -30 -18 -43 -17 -14
-30 -46 -30 -72 0 -27 -7 -48 -16 -48 -8 0 -17 -19 -19 -42 -1 -23 -17 -58
-33 -76 -40 -44 -89 -184 -76 -220 6 -18 1 -22 -17 -12 -18 12 -22 7 -13 -16
7 -18 -1 -47 -18 -63 -17 -17 -25 -39 -19 -49 6 -11 3 -25 -9 -32 -11 -7 -20
-30 -20 -51 0 -22 -9 -39 -20 -39 -11 0 -20 -8 -20 -19 0 -10 -10 -44 -23 -75
-13 -31 -22 -64 -20 -73 2 -9 -14 -46 -36 -82 -22 -36 -36 -70 -30 -75 14 -14
-33 -116 -53 -116 -14 0 -26 -42 -47 -170 -3 -22 -17 -38 -30 -35 -12 3 -21
-6 -18 -20 9 -42 -22 -135 -45 -135 -11 0 -15 -8 -9 -18 10 -17 -18 -90 -82
-208 -25 -47 -39 -100 -46 -180 0 -9 -10 -11 -20 -5 -10 7 -25 -22 -33 -63 -7
-42 -20 -85 -29 -96 -9 -11 -17 -29 -19 -40 -3 -11 -22 -54 -43 -96 -21 -41
-34 -83 -27 -93 6 -10 2 -24 -10 -31 -11 -7 -20 -39 -20 -72 0 -38 -8 -55 -21
-47 -12 7 -19 1 -16 -14 8 -34 -54 -189 -82 -206 -12 -8 -21 -35 -21 -62 0
-27 -10 -49 -22 -49 -12 0 -17 -13 -11 -29 6 -15 -2 -39 -18 -52 -16 -13 -25
-30 -20 -37 26 -43 -35 -65 -195 -70 -172 -5 -211 10 -196 76 2 10 -2 32 -9
50 -8 18 -18 86 -23 152 -19 256 -21 280 -26 280 -2 0 -7 41 -11 90 -7 96 -24
249 -38 354 -11 78 -90 205 -131 208 -16 1 -55 4 -85 7 -31 3 -51 0 -45 -5 5
-6 -1 -25 -15 -42 -22 -29 -20 -29 16 -2 40 30 40 29 0 -10 -23 -22 -59 -78
-81 -125 -22 -46 -47 -85 -55 -85 -8 0 -15 -14 -15 -31 0 -17 -22 -75 -50
-129 -27 -54 -50 -117 -50 -139 0 -23 -9 -41 -21 -41 -11 0 -19 -11 -16 -25 2
-14 -12 -61 -33 -105 -21 -44 -39 -89 -40 -100 -6 -48 -34 -110 -50 -110 -10
0 -24 -34 -31 -75 -15 -97 -49 -165 -81 -165 -13 0 -28 -11 -33 -25 -6 -18
-67 -25 -212 -24 -231 1 -288 27 -250 113 25 58 -1 189 -50 253 -46 59 -106
45 -191 -45 -33 -34 -53 -51 -45 -37 10 16 5 21 -15 13 -17 -7 -29 -22 -26
-34 2 -12 -5 -23 -16 -23 -26 -2 -125 -71 -101 -71 38 0 -62 -60 -134 -80 -41
-12 -75 -28 -75 -37 0 -8 -46 -12 -102 -8 -56 4 -97 -1 -91 -10 6 -9 -22 -13
-61 -8 -50 5 -67 1 -58 -14 8 -13 5 -23 -7 -23 -11 0 -21 11 -21 25 0 15 -6
17 -15 5 -17 -23 -793 -28 -816 -5 -9 8 -27 5 -42 -8 -20 -16 -27 -16 -27 2 0
13 -20 21 -45 17 -79 -11 -51 136 67 350 11 20 14 43 9 53 -6 10 -3 21 8 24
10 4 23 33 29 65 6 32 20 68 31 79 12 12 21 42 21 68 0 29 9 42 21 34 12 -7
20 -1 17 14 -10 59 78 241 108 224 14 -9 13 -1 -3 19 -22 27 -23 40 -3 64 14
17 19 30 11 30 -8 0 0 14 18 32 17 17 26 40 19 50 -6 11 3 42 21 69 17 27 27
49 20 49 -7 0 2 14 20 31 28 29 40 71 33 114 -1 8 5 15 13 15 8 0 16 24 18 54
2 30 18 64 35 77 18 13 32 36 32 52 0 16 11 41 25 56 20 22 20 24 -2 12 -19
-12 -18 0 5 46 18 33 32 75 32 93 0 19 9 27 23 18 14 -8 18 -5 10 7 -8 12 3
65 24 119 50 131 62 165 62 177 0 6 13 24 30 41 27 27 41 85 33 134 -2 9 15
42 37 73 22 30 34 61 27 68 -7 7 -4 13 6 13 11 0 21 20 23 45 2 24 12 47 23
51 11 4 15 20 9 35 -6 16 -2 29 10 29 20 0 37 38 53 120 15 77 32 120 49 120
15 0 33 50 52 149 5 21 17 47 29 59 11 11 20 37 20 57 0 125 248 153 920 105z"/>
<path d="M2164 885 c-25 -9 -32 -81 -12 -132 6 -17 24 -26 40 -20 15 6 28 1
28 -11 0 -12 9 -22 20 -22 11 0 20 29 20 66 0 68 -53 133 -96 119z"/>
</g>
</svg>