<?xml version="1.0" standalone="no"?>
<!DOCTYPE svg PUBLIC "-//W3C//DTD SVG 20010904//EN"
 "http://www.w3.org/TR/2001/REC-SVG-20010904/DTD/svg10.dtd">
<svg version="1.0" xmlns="http://www.w3.org/2000/svg"
 width="300.000000pt" height="287.000000pt" viewBox="0 0 300.000000 287.000000"
 preserveAspectRatio="xMidYMid meet">
<metadata>
Created by potrace 1.10, written by Peter Selinger 2001-2011
</metadata>
<rect x="0" y="0" width="300" height="287" fill="#000000"/>
<g transform="translate(0.000000,287.000000) scale(0.050000,-0.050000)"
 fill="#ffffff" stroke="none">
<path d="M4304 5449 c-8 -14 -36 -29 -64 -34 -43 -7 -45 -10 -15 -24 49 -22
140 4 122 35 -11 18 -6 17 17 -1 17 -14 46 -20 64 -13 31 12 31 15 -2 38 -46
31 -104 30 -122 -1z"/>
<path d="M5520 4719 c-38 -9 -191 -17 -340 -17 -148 0 -286 0 -305 -1 -21 -1
-35 -17 -35 -41 0 -22 -9 -40 -20 -40 -11 0 -20 -13 -20 -30 0 -31 -87 -265
-130 -350 -14 -27 -32 -79 -39 -115 -8 -36 -21 -65 -30 -65 -9 0 -23 -32 -30
-71 -7 -39 -34 -111 -61 -160 -26 -49 -53 -118 -61 -154 -8 -36 -31 -96 -52
-135 -20 -38 -37 -84 -37 -102 0 -42 -45 -80 -73 -62 -12 8 -28 77 -36 154 -7
77 -19 167 -24 200 -22 125 -72 504 -79 600 -15 183 -39 348 -53 362 -11 11
-293 16 -520 9 -20 -1 -35 -16 -35 -37 0 -20 -13 -54 -29 -75 -17 -22 -30 -51
-30 -65 -1 -14 -18 -64 -39 -110 -20 -46 -44 -113 -51 -149 -8 -36 -22 -65
-33 -65 -10 0 -18 -14 -18 -31 0 -17 -18 -73 -41 -125 -64 -145 -73 -169 -99
-244 -26 -75 -35 -99 -99 -244 -23 -52 -41 -101 -41 -110 0 -9 -12 -39 -27
-68 -15 -28 -34 -85 -41 -125 -8 -40 -21 -73 -30 -73 -10 0 -23 -28 -29 -62
-7 -33 -26 -90 -41 -125 -88 -193 -114 -259 -125 -314 -22 -110 -75 -66 -91
75 -13 116 -76 246 -120 246 -38 0 -14 95 29 114 67 31 235 185 235 216 0 14
14 31 30 37 17 7 30 21 30 32 0 11 26 63 59 116 202 329 299 882 171 977 -17
12 -30 31 -30 41 0 69 -228 167 -388 167 -89 0 -375 1 -636 2 -494 2 -516 -1
-516 -62 0 -21 -9 -43 -20 -50 -12 -7 -16 -21 -10 -31 6 -9 2 -33 -9 -53 -35
-63 -98 -216 -112 -272 -7 -30 -21 -59 -31 -65 -10 -6 -18 -27 -19 -45 0 -19
-18 -70 -39 -114 -21 -44 -39 -91 -39 -103 -1 -13 -14 -49 -31 -80 -53 -102
-110 -244 -110 -276 0 -17 -10 -31 -21 -31 -12 0 -20 -16 -17 -35 2 -19 -6
-60 -19 -91 -13 -31 -23 -65 -23 -75 0 -11 -8 -19 -18 -19 -10 0 -24 -34 -32
-75 -7 -41 -21 -84 -30 -95 -9 -11 -18 -27 -19 -35 -1 -8 -20 -56 -42 -106
-21 -51 -39 -98 -39 -106 0 -7 -13 -37 -28 -67 -16 -29 -34 -81 -42 -115 -7
-33 -20 -61 -29 -61 -9 0 -21 -27 -28 -60 -7 -33 -30 -100 -52 -149 -23 -49
-41 -101 -41 -116 0 -15 -8 -36 -18 -46 -9 -10 -28 -55 -41 -99 -24 -78 -59
-165 -112 -275 -14 -30 -32 -82 -39 -115 -7 -33 -20 -60 -29 -60 -9 0 -23 -34
-31 -75 -7 -41 -21 -84 -29 -95 -9 -11 -22 -47 -30 -80 -8 -33 -22 -65 -32
-71 -10 -6 -24 -39 -31 -73 l-12 -62 647 5 c644 5 845 22 970 81 35 17 72 30
82 30 11 0 61 32 111 70 50 39 101 70 113 70 11 0 21 8 21 18 0 24 139 162
164 162 24 0 3 -102 -36 -176 -15 -30 -28 -65 -28 -78 0 -14 -18 -56 -39 -95
-22 -38 -32 -74 -22 -80 37 -23 781 -8 781 16 0 13 13 47 28 76 15 29 39 86
52 127 13 41 37 98 52 127 15 29 28 68 28 87 0 18 8 39 18 45 10 6 24 35 31
65 8 30 32 95 54 145 62 143 71 166 97 241 13 39 37 97 52 130 15 33 40 94 57
135 30 78 43 86 89 57 18 -12 23 -35 14 -70 -7 -29 -4 -52 6 -52 10 0 24 -88
31 -195 8 -107 23 -215 35 -239 12 -24 16 -71 9 -104 -6 -33 -4 -65 5 -71 9
-5 18 -69 20 -141 2 -72 11 -151 20 -176 9 -24 12 -55 7 -69 -4 -14 4 -52 18
-85 l27 -60 242 0 242 0 26 55 c31 64 26 49 61 170 15 52 34 95 42 95 7 0 20
29 28 65 7 36 25 92 40 125 14 33 45 102 68 154 22 52 41 106 41 121 0 15 8
36 18 46 10 10 28 51 39 89 29 99 70 205 93 240 22 35 83 197 113 305 12 41
30 75 39 75 10 0 18 19 18 42 0 23 13 66 29 95 15 29 53 121 84 203 31 83 63
155 72 162 10 6 15 20 13 30 -3 10 6 43 19 74 13 31 23 70 23 85 0 16 9 29 19
29 11 0 25 32 32 70 8 39 21 70 30 70 9 0 22 29 30 65 7 36 31 103 51 149 21
46 38 96 39 110 0 14 13 43 30 65 16 21 29 58 29 82 0 24 13 55 28 67 15 13
34 48 41 78 12 52 46 133 104 247 15 29 27 72 27 95 0 23 8 42 18 42 9 0 22
18 28 40 6 22 4 39 -3 38 -7 -1 -44 -10 -83 -19z"/>
<path d="M2164 885 c-25 -9 -32 -81 -12 -132 6 -17 24 -26 40 -20 15 6 28 1
28 -11 0 -12 9 -22 20 -22 11 0 20 29 20 66 0 68 -53 133 -96 119z"/>
</g>
</svg>